#!OML:ASF F:\VICON\USERDATA\INSTALL\rory3\rory3.ASF
:FULLY-SPECIFIED
:DEGREES
253
root -0.396673 19.8859 -4.8864 5.94647 -0.110771 3.74515
lowerback 3.32098 -0.698022 -0.176197
upperback -3.45734 -0.880515 1.3044
thorax -5.41861 -0.401502 1.5212
lowerneck -11.8762 -1.36075 -7.29876
upperneck -4.91585 -0.890548 4.36994
head 0.536971 -0.274782 2.64792
rclavicle -1.14425e-014 -3.97569e-015
rhumerus 44.0652 12.735 -32.7636
rradius 55.7449
rwrist 15.7576
rhand -34.9719 6.02925
rfingers 7.12502
rthumb -8.11769 -23.7948
lclavicle -1.14425e-014 -3.97569e-015
lhumerus 17.6087 -7.05019 39.2062
lradius 91.6242
lwrist 12.6119
lhand -30.5548 22.1277
lfingers 7.12502
lthumb -3.85318 52.0727
rfemur 4.68677 15.7983 17.393
rtibia 33.3556
rfoot 21.3295 -18.212
rtoes -3.28884
lfemur 10.4143 0.101053 -18.9474
ltibia 19.071
lfoot 28.3866 8.10747
ltoes -5.32859
254
root -0.414419 20.2222 -4.53056 5.52653 -0.13578 3.78853
lowerback 1.41213 -0.576935 -0.15102
upperback -3.78116 -0.728766 1.19353
thorax -4.6732 -0.332801 1.35691
lowerneck -10.8044 -1.21974 -7.25964
upperneck -2.98631 -0.813105 4.44393
head 0.977753 -0.266557 2.67561
rclavicle 1.88845e-015 -9.54166e-015
rhumerus 42.7364 13.6728 -33.9875
rradius 53.4793
rwrist 16.4453
rhand -34.5961 5.08798
rfingers 7.12502
rthumb -7.75498 -24.7498
lclavicle 1.88845e-015 -9.54166e-015
lhumerus 16.6769 -8.64601 40.6647
lradius 89.6503
lwrist 12.1921
lhand -30.4248 21.8967
lfingers 7.12502
lthumb -3.72767 51.8439
rfemur 6.09158 17.6926 18.1892
rtibia 31.9997
rfoot 25.5673 -13.2785
rtoes -1.75414
lfemur 12.4349 -3.53408 -20.1157
ltibia 16.7477
lfoot 28.6207 10.9597
ltoes -5.43683
255
root -0.433194 20.5336 -4.20864 5.20675 -0.166724 3.57257
lowerback -0.326207 -0.469973 0.0766526
upperback -3.91193 -0.588998 1.17731
thorax -3.82798 -0.274737 1.18686
lowerneck -10.3302 -1.07607 -7.20108
upperneck -1.32152 -0.690896 4.54214
head 1.43319 -0.226237 2.71433
rclavicle -4.37326e-015 -7.95139e-015
rhumerus 41.4973 14.1501 -35.6102
rradius 51.6248
rwrist 17.7764
rhand -34.6375 3.74779
rfingers 7.12502
rthumb -7.79491 -26.0885
lclavicle -4.37326e-015 -7.95139e-015
lhumerus 15.913 -9.63967 42.2986
lradius 87.7084
lwrist 11.554
lhand -30.1626 21.6287
lfingers 7.12502
lthumb -3.47446 51.5801
rfemur 6.72524 18.6045 19.0372
rtibia 31.8056
rfoot 26.8667 -6.80435
rtoes -0.605742
lfemur 13.1553 -4.41704 -20.2639
ltibia 16.7198
lfoot 27.5856 11.0835
ltoes -5.21287
256
root -0.441975 20.8272 -3.91874 5.02205 0.0706132 3.22188
lowerback -1.72332 -0.426121 0.534117
upperback -4.0595 -0.536057 1.2292
thorax -3.19692 -0.263068 0.970199
lowerneck -10.0059 -0.972226 -7.27977
upperneck 0.042004 -0.594371 4.69495
head 1.82255 -0.192089 2.79773
rclavicle 3.97569e-015 1.19271e-014
rhumerus 39.9539 14.338 -37.3949
rradius 50.4162
rwrist 19.0954
rhand -34.5543 3.2443
rfingers 7.12502
rthumb -7.7146 -26.595
lclavicle 3.97569e-015 1.19271e-014
lhumerus 15.0725 -10.2497 44.2978
lradius 85.8337
lwrist 10.508
lhand -30.6697 21.3069
lfingers 7.12502
lthumb -3.96421 51.2498
rfemur 6.64881 18.2628 19.7164
rtibia 32.6766
rfoot 26.4735 -1.36926
rtoes 3.74166
lfemur 12.765 -4.33496 -19.9945
ltibia 18.5205
lfoot 25.7209 10.1334
ltoes -3.88577
257
root -0.457892 21.0995 -3.65708 4.83932 0.203184 2.9931
lowerback -2.74543 -0.328109 0.713426
upperback -4.16666 -0.417333 1.27301
thorax -2.73569 -0.208353 0.906732
lowerneck -9.59015 -0.972087 -7.22899
upperneck 0.900006 -0.644351 4.68383
head 2.03488 -0.23035 2.78842
rclavicle -2.38542e-015 3.49861e-014
rhumerus 38.0232 14.3641 -39.0413
rradius 49.8693
rwrist 19.8804
rhand -34.6211 3.60982
rfingers 7.12502
rthumb -7.77911 -26.2271
lclavicle -2.38542e-015 3.49861e-014
lhumerus 14.1238 -10.5597 46.5438
lradius 84.1078
lwrist 9.33519
lhand -30.7091 21.1355
lfingers 7.12502
lthumb -4.00223 51.0776
rfemur 6.04571 17.5197 20.1394
rtibia 34.4835
rfoot 25.9814 -0.52618
rtoes -1.12963
lfemur 11.7692 -3.45593 -19.6462
ltibia 21.2229
lfoot 23.9375 11.2638
ltoes -4.57975
258
root -0.469939 21.3598 -3.43257 4.4687 0.578194 2.98228
lowerback -3.12356 -0.340942 0.776961
upperback -4.1612 -0.442064 1.20069
thorax -2.51866 -0.223458 0.793896
lowerneck -9.60294 -1.0017 -7.12792
upperneck 1.75295 -0.710628 4.68711
head 2.3262 -0.271223 2.77799
rclavicle 1.87852e-014 -9.54166e-015
rhumerus 35.989 14.3277 -40.645
rradius 49.7443
rwrist 19.8626
rhand -35.1386 3.92301
rfingers 7.12502
rthumb -8.27851 -25.8948
lclavicle 1.87852e-014 -9.54166e-015
lhumerus 13.0597 -10.4525 48.7837
lradius 82.5214
lwrist 8.15296
lhand -30.2965 21.0516
lfingers 7.12502
lthumb -3.60379 51.0009
rfemur 5.31236 16.1351 20.2072
rtibia 36.8433
rfoot 25.921 -2.83493
rtoes -5.32853
lfemur 10.7493 -2.11417 -19.2881
ltibia 24.0195
lfoot 23.437 10.2377
ltoes -5.85517
